<svg width="128" height="128" viewBox="0 0 128 128" fill="none" xmlns="http://www.w3.org/2000/svg">
<rect width="128" height="128" fill="white"/>
<path d="M10 71.5C10 50.8572 32.6381 46 54.5 46C76.3619 46 99 50.8572 99 71.5C99 92.1428 76.3621 97 54.5 97C32.6379 97 10 92.1428 10 71.5Z" fill="#EEECED"/>
<path d="M54.2432 46C34.1845 46 13.4794 50.1236 10 66.8253C11.3264 67.0506 12.8182 67.1594 14.5245 67.1594C16.1342 67.1594 17.9915 67.0637 20.1976 66.867C23.2942 66.5933 26.7535 66.1513 30.4156 65.6833C32.6858 65.3931 35.0334 65.093 37.435 64.8149C42.0902 64.2739 48.2078 63.6529 54.2432 63.6529C60.2787 63.6529 66.396 64.2739 71.054 64.8154C73.4529 65.0932 75.8004 65.3934 78.0709 65.6835C81.733 66.1516 85.1923 66.5938 88.2838 66.8667C88.2865 66.867 88.2893 66.8672 88.292 66.8674C88.7634 66.9095 89.1631 67.2404 89.2908 67.7047C89.3351 67.8655 89.3812 68.0264 89.4291 68.1869C90.8944 73.1122 93.8744 77.3114 97.6966 80C98.5426 77.6338 99 74.9773 99 71.9976C99 50.952 76.2312 46 54.2432 46Z" fill="#D4D2D3"/>
<path d="M120.139 57.6893C118.61 54.3459 115.193 51.5139 110.77 50.3736C105.784 49.0881 100.877 50.3023 97.9743 53.1479C95.2533 56.168 94.2467 61.122 95.7409 66.049C97.066 70.4196 100.039 73.7152 103.444 75.102C104.232 75.423 105.142 75.1471 105.619 74.4427C107.68 71.3984 108.322 67.0067 106.997 62.6361C106.866 62.2054 106.719 61.786 106.557 61.3771C106.972 61.5212 107.398 61.6508 107.834 61.7631C112.256 62.9034 116.617 62.0769 119.572 59.8897C120.256 59.3836 120.493 58.463 120.139 57.6893Z" fill="#FB8D4B"/>
<path d="M19.8941 38.0414C10.8914 42.8388 7.69775 49.7875 7.69775 56.8064C7.69775 60.2332 12.5521 60.6063 19.8963 59.964L25.3409 44.8407L19.8941 38.0414Z" fill="#FB8D4B"/>
<path d="M88.5065 38.0022C88.5074 38.0043 88.5095 38.009 88.5113 38.0128L88.5041 38L82 44.7451L88.5041 59.7426C96.0276 60.3796 101 60.0096 101 56.6113C101 49.6507 97.7281 42.7601 88.5065 38.0022Z" fill="#E86D24"/>
<path d="M88.9373 38.4233C88.935 38.4211 88.935 38.4211 88.935 38.4211C84.0684 35.9234 77.5445 34.0155 68.966 33L68.9683 33.0022L63 43.0894L71.6089 58.05C78.0216 58.7513 84.0244 59.5906 88.9352 60C93.5331 48.3189 89.0298 38.6258 88.9373 38.4233Z" fill="#FB8D4B"/>
<path d="M69.3377 32.8256L69.3354 32.8234C64.8701 32.2887 59.8432 32 54.2023 32L45 46.5441L54.2023 56.8366C60.1285 56.8366 66.2135 57.3624 71.9625 58C77.762 45.2886 69.3377 32.8256 69.3377 32.8256Z" fill="#E86D24"/>
<path d="M39.0966 32.8236L39.0944 32.8259L25 45.0001L36.5094 58C42.1713 57.3624 48.1637 56.8366 54 56.8366V32C48.4447 32.0002 43.4944 32.2889 39.0966 32.8236Z" fill="#FB8D4B"/>
<path d="M38.9978 33.0025C38.9978 33.0025 30.921 45.4026 36.4813 58.05C30.3696 58.7513 24.6484 59.5906 19.968 60C15.5857 48.319 19.8777 38.626 19.9658 38.4233C19.968 38.4211 19.968 38.421 19.968 38.421C24.6062 35.9234 30.824 34.0155 39 33L38.9978 33.0025Z" fill="#E86D24"/>
<path d="M40 74.3756V71.6244C40 70.7273 39.3284 70 38.5 70C37.6716 70 37 70.7273 37 71.6244V74.3756C37 75.2727 37.6716 76 38.5 76C39.3284 76 40 75.2727 40 74.3756Z" fill="black"/>
<path d="M72 74.3756V71.6244C72 70.7273 71.1045 70 70 70C68.8955 70 68 70.7273 68 71.6244V74.3756C68 75.2727 68.8955 76 70 76C71.1045 76 72 75.2727 72 74.3756Z" fill="black"/>
<path d="M54.4999 78C56.8616 78 59.0782 77.1058 60.5815 75.5468C61.197 74.9081 61.1252 73.9379 60.4211 73.3797C59.7171 72.8215 58.6469 72.8866 58.0314 73.5251C57.1717 74.4169 55.8845 74.9284 54.5001 74.9284C53.1156 74.9284 51.8285 74.4169 50.9688 73.5251C50.3532 72.8864 49.2833 72.8213 48.579 73.3795C47.8747 73.9379 47.8029 74.9079 48.4187 75.5466C49.9215 77.1058 52.1381 78 54.4999 78Z" fill="black"/>
<path d="M10.3364 61.5943C8.88505 64.6423 8.14872 68.0883 8.14872 71.8756C8.14872 79.7272 11.2549 85.995 17.3814 90.5055C18.1379 91.0625 19.2013 90.8988 19.7567 90.1396C20.3117 89.3803 20.1484 88.3134 19.3919 87.7563C14.113 83.8701 11.5469 78.6753 11.5469 71.8756C11.5469 68.1583 12.3524 64.8469 13.9428 62.0172C15.2424 62.0542 16.752 62.009 18.5504 61.8817C24.7326 61.4436 30.87 60.4745 37.0252 59.771C41.7815 59.2265 48.043 58.6018 54.2947 58.6018C60.0626 58.6018 65.8383 59.1156 71.5652 59.7712C77.2258 60.4193 82.8681 61.2697 88.5458 61.7637C90.1435 61.9033 91.7487 62.0151 93.3532 62.0269C93.37 62.6016 93.4164 63.1813 93.4923 63.7635C93.4935 63.7726 93.4948 63.7817 93.4962 63.7907C93.906 66.8569 95.1252 69.8912 97.0276 72.3341C97.0315 72.3389 97.0349 72.3441 97.0387 72.3491C96.8869 80.8401 92.621 86.8613 84.0102 90.747C76.8889 93.9604 66.8914 95.5901 54.2954 95.5901C42.076 95.5901 32.2924 94.0543 25.2161 91.0252C24.3527 90.6558 23.3547 91.0582 22.9863 91.9245C22.6181 92.7906 23.0194 93.7922 23.8824 94.1616C31.3825 97.3721 41.6149 99 54.2952 99C67.3749 99 77.8414 97.2696 85.404 93.8568C94.1799 89.8968 99.1489 83.6978 100.22 75.4018C101.035 75.9779 101.899 76.4632 102.804 76.8333C104.283 77.4378 106.106 76.9142 107.027 75.5487C109.181 72.3566 109.894 68.0854 109.031 63.8619C113.273 64.5491 117.496 63.6546 120.584 61.3611C121.907 60.3786 122.37 58.5757 121.686 57.074C119.884 53.1212 115.963 50.0251 111.196 48.7918C107.731 47.8955 104.233 48.0719 101.259 49.1933C99.3381 43.9619 95.3932 39.7211 89.5035 36.5695C89.4996 36.5674 89.4962 36.5645 89.4921 36.5622C84.2853 33.775 77.5192 31.8525 69.3815 30.8479C64.8276 30.2853 59.7526 30 54.295 30C48.8389 30 43.7637 30.2853 39.2084 30.8479C31.0707 31.8522 24.3047 33.7747 19.0978 36.5624C19.0935 36.5647 19.0894 36.5679 19.0851 36.5704C8.27061 42.3576 6 50.8178 6 56.8967C6 58.1945 6.48145 59.3231 7.39223 60.1606C8.10273 60.8141 9.05769 61.2874 10.3364 61.5943ZM55.9942 33.4192C60.3442 33.4685 64.4207 33.7084 68.1443 34.1344C69.4241 36.4047 73.321 44.2458 71.6229 52.8746C71.4029 53.9926 71.0935 55.0921 70.6992 56.1608C70.6897 56.1869 70.6807 56.2129 70.6709 56.239C66.373 55.7637 62.06 55.3874 57.7371 55.2497C57.1565 55.231 56.5753 55.2156 55.9942 55.206V33.4192ZM87.3536 39.2906C88.4237 42.0644 88.8904 45.0603 88.9899 48.0232C88.9905 48.043 88.9914 48.0626 88.9919 48.0824C89.0961 51.485 88.6158 54.9182 87.5607 58.154C87.551 58.1838 87.5412 58.2136 87.5315 58.2436C87.2514 58.2161 86.6023 58.1494 86.5616 58.1451C82.8622 57.7532 79.1745 57.2554 75.4824 56.8023C75.0368 56.7478 74.5891 56.6932 74.1382 56.6391C74.1412 56.6305 74.1434 56.6218 74.1464 56.6132C77.1875 47.5888 74.334 39.0985 72.2734 34.7052C78.2519 35.6845 83.3108 37.2212 87.3536 39.2906ZM110.347 52.0935C114.132 53.0726 117.215 55.4645 118.595 58.492C118.615 58.5354 118.601 58.5918 118.562 58.6202C115.896 60.6007 112.044 61.1986 108.259 60.2195C107.882 60.1217 107.497 60.0051 107.116 59.8723C105.766 59.4029 104.455 60.7794 104.978 62.109C105.126 62.4857 105.259 62.8667 105.372 63.2411C106.506 66.994 106.073 70.8803 104.213 73.6367C104.186 73.6762 104.131 73.6933 104.086 73.6751C98.1203 71.2454 95.3209 63.2613 97.4626 57.3925C97.4705 57.3706 97.4792 57.349 97.4873 57.3272C99.4104 52.1572 105.489 50.8369 110.347 52.0935ZM98.2232 50.8034C97.7175 51.1653 96.6776 52.1274 96.6187 52.1944C95.0744 53.9573 94.0558 56.1808 93.6077 58.6189C93.5925 58.6189 91.8797 58.5855 91.0402 58.5307C91.0298 58.53 91.0192 58.5293 91.0088 58.5286C91.014 58.5113 91.0185 58.4943 91.0237 58.477C91.6832 56.2852 92.1148 54.0249 92.3058 51.743C92.5779 48.4931 92.3686 45.1942 91.676 42.0071C91.6744 42 91.673 41.9925 91.6714 41.9855C94.8696 44.4342 97.0639 47.3858 98.2232 50.8034ZM52.5958 55.206C52.4437 55.2085 52.2924 55.2124 52.1406 55.2156C48.241 55.3006 44.345 55.5377 40.4679 55.9701C39.6178 56.0551 38.7684 56.1449 37.9193 56.2388C37.9113 56.2174 37.9039 56.196 37.8959 56.1747C35.7012 50.2535 36.3927 43.6541 38.681 37.8711C39.1878 36.5906 39.768 35.3333 40.4457 34.1344C44.169 33.7084 48.2458 33.4685 52.5955 33.4192V55.206H52.5958V55.206ZM36.3068 34.7261C34.265 39.0394 33.0806 43.7982 33.1161 48.5854C33.1361 51.2713 33.5588 53.9501 34.4057 56.4995C34.4211 56.5461 34.4345 56.5927 34.4504 56.6393C30.6815 57.0924 26.9187 57.6075 23.1456 58.0235C22.4503 58.1013 21.7547 58.1751 21.0585 58.2436C21.0494 58.2161 21.0406 58.1888 21.0315 58.1613C19.473 53.3706 19.1723 48.1965 20.1418 43.2528C20.5095 41.3779 20.9706 39.9996 21.2377 39.288C25.2793 37.2212 30.3383 35.6845 36.3168 34.7054C36.3134 34.712 36.3102 34.7193 36.3068 34.7261ZM16.9199 41.9796C16.918 41.9873 16.9165 41.9955 16.9149 42.0034C15.7182 47.427 15.9701 53.1637 17.5665 58.477C17.5715 58.4938 17.576 58.5104 17.5812 58.5273C13.2516 58.7807 10.6006 58.4859 9.68844 57.6471C9.51421 57.487 9.39844 57.2981 9.39844 56.8969C9.39844 50.7925 11.9244 45.7909 16.9199 41.9796Z" fill="black"/>
</svg>
